# xmcd CD database file generated by Grip 3.0.0
# 
# Track frame offsets:
#       150
#       18318
#       33430
#       49440
#       65055
#       82180
#       97553
#       110650
#       125975
#       144840
#       158898
#       175373
# 
# Disc length: 2508 seconds
# 
# Revision: 2
# Processed by: cddbd v1.4PL0 Copyright (c) Steve Scherf et al.
# Submitted via: Grip 3.0.0
# 
DISCID=a709ca0c
DTITLE=Cecilia Toussaint - Sirena de Trapo
DYEAR=1993
DGENRE=Blues
TTITLE0=Fiebre de Invierno
TTITLE1=Las calles no cuentan
TTITLE2=Castillos de Arena
TTITLE3=Sacude tu corazón
TTITLE4=Como Locos
TTITLE5=Exorciza tus miedos
TTITLE6=La Almohada
TTITLE7=Ya no
TTITLE8=Sirena de Trapo
TTITLE9=Otro lugar
TTITLE10=Tregua (Algo mejor)
TTITLE11=Solo porque si
EXTD=1993 SONY MUSIC ENT. MEXICO SA. DE C.V.\nPRODUCCION.- EUGENIOTOUSSAINT
EXTD=\nCOPRODUCCION.- GUILLERMO GIL Y CECILIA TOUSSAINT\nDIRECCION MUSICAL 
EXTD=Y ARREGLOS.- EUGENIO TOUSSAINT
EXTT0=
EXTT1=
EXTT2=
EXTT3=
EXTT4=
EXTT5=
EXTT6=
EXTT7=
EXTT8=
EXTT9=
EXTT10=
EXTT11=
PLAYORDER=
